<svg width="41" height="40" viewBox="0 0 41 40" fill="none" xmlns="http://www.w3.org/2000/svg">
<path d="M20.5 0.625C16.668 0.625 12.922 1.76132 9.73584 3.89028C6.54963 6.01923 4.06629 9.04519 2.59984 12.5855C1.13339 16.1258 0.749705 20.0215 1.49729 23.7799C2.24488 27.5383 4.09017 30.9905 6.79981 33.7002C9.50946 36.4098 12.9618 38.2551 16.7201 39.0027C20.4785 39.7503 24.3742 39.3666 27.9145 37.9002C31.4548 36.4337 34.4808 33.9504 36.6097 30.7642C38.7387 27.578 39.875 23.832 39.875 20C39.8692 14.8632 37.8261 9.93846 34.1938 6.3062C30.5615 2.67394 25.6368 0.63079 20.5 0.625ZM20.5 38.125C16.9152 38.125 13.4109 37.062 10.4303 35.0704C7.44966 33.0788 5.12653 30.248 3.75469 26.9361C2.38285 23.6242 2.02392 19.9799 2.72328 16.464C3.42263 12.9481 5.14887 9.71852 7.6837 7.18369C10.2185 4.64886 13.4481 2.92262 16.964 2.22327C20.4799 1.52391 24.1242 1.88285 27.4361 3.25468C30.7481 4.62652 33.5788 6.94965 35.5704 9.93029C37.562 12.9109 38.625 16.4152 38.625 20C38.6194 24.8053 36.708 29.4122 33.3101 32.8101C29.9122 36.208 25.3053 38.1194 20.5 38.125Z" fill="#9C121E"/>
<path d="M18 18.75C18 19.7389 18.2932 20.7056 18.8427 21.5279C19.3921 22.3501 20.173 22.991 21.0866 23.3694C22.0002 23.7478 23.0055 23.8469 23.9755 23.6539C24.9454 23.461 25.8363 22.9848 26.5355 22.2855C27.2348 21.5863 27.711 20.6954 27.9039 19.7255C28.0969 18.7555 27.9978 17.7502 27.6194 16.8366C27.241 15.923 26.6001 15.1421 25.7779 14.5927C24.9556 14.0432 23.9889 13.75 23 13.75C21.6744 13.7515 20.4035 14.2788 19.4661 15.2161C18.5288 16.1535 18.0015 17.4244 18 18.75ZM23 15C23.7417 15 24.4667 15.2199 25.0834 15.632C25.7001 16.044 26.1807 16.6297 26.4645 17.3149C26.7484 18.0002 26.8226 18.7542 26.6779 19.4816C26.5333 20.209 26.1761 20.8772 25.6517 21.4017C25.1272 21.9261 24.459 22.2833 23.7316 22.4279C23.0042 22.5726 22.2502 22.4984 21.5649 22.2145C20.8797 21.9307 20.294 21.4501 19.882 20.8334C19.4699 20.2167 19.25 19.4917 19.25 18.75C19.251 17.7557 19.6464 16.8025 20.3494 16.0994C21.0525 15.3964 22.0057 15.001 23 15Z" fill="#9C121E"/>
<path d="M30.1813 10.37C29.8426 10.2847 29.5288 10.1205 29.2658 9.89073C29.0027 9.66099 28.7977 9.37226 28.6675 9.04813C28.4127 8.40534 27.9702 7.85421 27.3976 7.46658C26.825 7.07896 26.149 6.87281 25.4575 6.875C24.3276 6.87402 23.2169 7.16694 22.2344 7.725L21.8257 7.31687L19.9507 5.44187C19.2676 4.75878 18.3411 4.37502 17.375 4.37502C16.409 4.37502 15.4825 4.75878 14.7994 5.44187L10.3169 9.92438C9.74338 10.4967 9.3776 11.2442 9.27772 12.0483C9.17784 12.8523 9.34959 13.6667 9.76565 14.3619C9.74889 14.3674 9.73177 14.3718 9.7144 14.375C9.25977 14.3755 8.8239 14.5564 8.50249 14.8779C8.18107 15.1994 8.00036 15.6354 8.00003 16.09V16.4894C7.62166 16.6888 7.30512 16.988 7.08476 17.3546C6.8644 17.7211 6.74864 18.1411 6.75003 18.5687C6.75062 19.196 6.89675 19.8145 7.1769 20.3756C7.30713 20.6367 7.37496 20.9245 7.37503 21.2162C7.37786 21.4141 7.41182 21.6102 7.47565 21.7975L7.15065 22.0413C6.83036 22.2832 6.57089 22.5965 6.39285 22.9563C6.21481 23.316 6.12311 23.7123 6.12503 24.1138C6.1233 24.6916 6.30396 25.2552 6.64128 25.7244C6.30164 26.531 6.12614 27.3973 6.12503 28.2725V28.75C6.12576 29.3322 6.32932 29.896 6.70071 30.3444C7.07211 30.7928 7.58812 31.0978 8.16003 31.2069L8.28503 31.5819C8.43393 32.0318 8.72111 32.4233 9.10562 32.7004C9.49013 32.9775 9.95233 33.1261 10.4263 33.125C10.7891 33.1264 11.1465 33.212 11.4707 33.375C11.969 33.6219 12.5176 33.7502 13.0738 33.75C13.9443 33.7492 14.8028 33.5466 15.5819 33.1581C15.6869 33.1055 15.7955 33.0604 15.9069 33.0231L16.1944 32.9275C16.7137 32.7529 17.1856 32.4604 17.573 32.073C17.9604 31.6856 18.2529 31.2137 18.4275 30.6944C18.4342 30.6742 18.4471 30.6566 18.4644 30.6441C18.4817 30.6317 18.5025 30.625 18.5238 30.625C18.8543 30.6243 19.173 30.5022 19.4194 30.2819C19.3114 30.5934 19.2542 30.9203 19.25 31.25C19.251 32.0785 19.5806 32.8728 20.1664 33.4586C20.7523 34.0444 21.5465 34.374 22.375 34.375C26.1862 34.3709 29.8402 32.855 32.5351 30.1601C35.2301 27.4652 36.7459 23.8112 36.75 20C36.7489 19.2716 36.4933 18.5665 36.0274 18.0065C35.5616 17.4465 34.9148 17.0669 34.1988 16.9331C34.2288 16.4825 34.25 16.0306 34.25 15.5806C34.2513 14.3824 33.8513 13.2183 33.1139 12.2739C32.3764 11.3296 31.344 10.6593 30.1813 10.37ZM27.5069 9.5125C27.711 10.0207 28.0326 10.4733 28.4455 10.8331C28.8583 11.1929 29.3506 11.4497 29.8819 11.5825C30.7734 11.8052 31.5647 12.3198 32.1297 13.0444C32.6948 13.7689 33.0012 14.6618 33 15.5806C33 16.0381 32.9775 16.4975 32.9438 16.9556C32.2513 17.1103 31.6322 17.496 31.188 18.0493C30.7439 18.6026 30.5013 19.2905 30.5 20C30.4975 22.1541 29.6407 24.2193 28.1175 25.7425C26.5943 27.2657 24.5292 28.1225 22.375 28.125C21.833 28.1282 21.3014 28.2742 20.8338 28.5481C20.3344 28.6813 19.8199 28.7491 19.3032 28.75C18.6262 28.7493 17.9772 28.4801 17.4986 28.0015C17.0199 27.5228 16.7507 26.8738 16.75 26.1969C16.7484 24.0658 16.0013 22.0025 14.6382 20.3644C13.984 19.5784 13.6255 18.5882 13.625 17.5656C13.6196 16.4152 13.988 15.2941 14.6748 14.3711C15.3616 13.4482 16.3296 12.7733 17.4332 12.4481C18.842 12.0236 20.1241 11.2575 21.1657 10.2181L21.7044 9.67937C22.1961 9.18495 22.781 8.79299 23.4252 8.52618C24.0695 8.25936 24.7602 8.12301 25.4575 8.125C25.899 8.12359 26.3306 8.25521 26.6962 8.50271C27.0617 8.7502 27.3443 9.10209 27.5069 9.5125ZM21.1944 8.455C21.0694 8.56437 20.9388 8.675 20.8194 8.79562L20.2807 9.33438C19.3862 10.2275 18.2847 10.8855 17.0744 11.25C16.0482 11.5525 15.1117 12.1019 14.347 12.8501C13.5822 13.5983 13.0124 14.5225 12.6875 15.5419C12.4273 15.0896 12.3239 14.564 12.3937 14.0469C12.4635 13.5297 12.7024 13.0502 13.0732 12.6831L17.5557 8.20063C18.0044 7.75202 18.613 7.50001 19.2475 7.50001C19.8821 7.50001 20.4906 7.75202 20.9394 8.20063L21.1944 8.455ZM11.2007 10.8081L15.6832 6.32563C16.1185 5.88813 16.7069 5.63702 17.3239 5.62536C17.941 5.6137 18.5385 5.84239 18.99 6.26312C18.1182 6.32745 17.2981 6.70116 16.6775 7.31687L12.195 11.7994C11.5754 12.4172 11.2007 13.2389 11.1407 14.1119C10.7202 13.6602 10.4917 13.0628 10.5034 12.4458C10.515 11.8288 10.7659 11.2405 11.2032 10.805L11.2007 10.8081ZM8.61128 17.5806C8.80375 17.4851 8.96561 17.3376 9.07851 17.1547C9.19141 16.9719 9.25083 16.7611 9.25003 16.5463V16.09C9.25003 15.9668 9.29893 15.8486 9.386 15.7614C9.47307 15.6742 9.59119 15.6252 9.7144 15.625C10.0302 15.6232 10.3392 15.5337 10.6069 15.3663L12.1919 16.9506L12.3919 17.1506C12.3832 17.2881 12.375 17.4262 12.375 17.5656C12.3769 18.1604 12.4731 18.751 12.66 19.3156L10.8219 18.2125L10.1782 19.2838L13.9907 21.57C14.6689 22.5015 15.1342 23.5707 15.3538 24.7019C15.3113 24.7212 15.2644 24.7306 15.2232 24.7512C14.7995 24.9608 14.3215 25.0346 13.8544 24.9627C13.3872 24.8908 12.9536 24.6766 12.6125 24.3494C12.2258 23.9659 11.7034 23.7505 11.1588 23.75C10.9841 23.7498 10.8167 23.6804 10.6932 23.5569C10.5697 23.4334 10.5002 23.2659 10.5 23.0912C10.4997 22.7688 10.3715 22.4596 10.1434 22.2316C9.91541 22.0036 9.60625 21.8753 9.28378 21.875C9.10912 21.8748 8.94166 21.8054 8.81816 21.6819C8.69465 21.5584 8.62519 21.3909 8.62503 21.2162C8.62443 20.7304 8.51149 20.2512 8.29503 19.8162C8.10102 19.4281 8.00002 19.0002 8.00003 18.5662C8 18.3613 8.05721 18.1605 8.16521 17.9863C8.2732 17.8122 8.4277 17.6717 8.61128 17.5806ZM17.2419 30.2994C17.129 30.6347 16.94 30.9393 16.6897 31.1895C16.4395 31.4396 16.1348 31.6285 15.7994 31.7412L15.5113 31.8369C15.344 31.8935 15.1807 31.9614 15.0225 32.04C14.4171 32.3416 13.7502 32.4991 13.0738 32.5C12.711 32.4985 12.3535 32.413 12.0294 32.25C11.5311 32.0031 10.9824 31.8748 10.4263 31.875C10.215 31.8754 10.009 31.8092 9.83755 31.6858C9.6661 31.5623 9.53793 31.388 9.47128 31.1875L9.21753 30.4287C9.17631 30.3041 9.09689 30.1956 8.99054 30.1187C8.88419 30.0417 8.7563 30.0002 8.62503 30C8.29351 30 7.97557 29.8683 7.74115 29.6339C7.50673 29.3995 7.37503 29.0815 7.37503 28.75V28.2725C7.37633 27.4505 7.56778 26.64 7.9344 25.9044C7.99297 25.787 8.01313 25.6542 7.99205 25.5248C7.97096 25.3953 7.90969 25.2758 7.8169 25.1831C7.67409 25.0397 7.56142 24.8692 7.48553 24.6815C7.40965 24.4939 7.37207 24.293 7.37503 24.0906C7.37522 23.8871 7.42276 23.6864 7.51387 23.5043C7.60499 23.3223 7.73719 23.164 7.90003 23.0419L8.22753 22.7969C8.52955 22.9987 8.8869 23.1016 9.25003 23.0912C9.25053 23.5973 9.45179 24.0825 9.80964 24.4404C10.1675 24.7982 10.6527 24.9995 11.1588 25C11.3715 25.0006 11.5754 25.085 11.7263 25.235C12.0117 25.5157 12.3437 25.7447 12.7075 25.9119L10.4075 26.2569L10.595 27.4931L12.31 27.2362L11.7969 28.5181L12.9582 28.9819L13.7425 27.0212L15.5475 26.7506C15.5872 27.0231 15.6568 27.2903 15.755 27.5475L14.9169 29.78L16.0882 30.2175L16.5969 28.86C16.9202 29.1871 17.2998 29.4532 17.7175 29.6456C17.4955 29.8094 17.3294 30.0377 17.2419 30.2994ZM35.5 20C35.4961 23.4797 34.112 26.8158 31.6514 29.2764C29.1909 31.7369 25.8548 33.121 22.375 33.125C21.8777 33.125 21.4008 32.9275 21.0492 32.5758C20.6976 32.2242 20.5 31.7473 20.5 31.25C20.5 30.7527 20.6976 30.2758 21.0492 29.9242C21.4008 29.5725 21.8777 29.375 22.375 29.375C22.425 29.375 22.4738 29.3681 22.5238 29.3675C22.7295 30.2459 23.174 31.0503 23.8082 31.6919L24.6919 30.8081C24.2616 30.3762 23.946 29.8436 23.7738 29.2587C24.6707 29.1244 25.5431 28.8593 26.3632 28.4719C26.5996 29.214 27.0092 29.8893 27.5582 30.4419L28.4419 29.5581C27.9749 29.0847 27.6461 28.4928 27.4907 27.8462C28.2333 27.3596 28.9035 26.7705 29.4813 26.0963C29.8263 26.608 30.2666 27.0485 30.7782 27.3937L31.4719 26.3537C30.9682 26.0149 30.5594 25.553 30.2844 25.0119C30.7811 24.231 31.1585 23.3804 31.4044 22.4881C31.927 23.181 32.5605 23.7826 33.2794 24.2688L33.9732 23.2288C33.0092 22.5833 32.2316 21.696 31.7182 20.6556C31.7332 20.4375 31.7513 20.2181 31.7513 19.9987C31.7513 19.5015 31.9488 19.0246 32.3005 18.6729C32.6521 18.3213 33.129 18.1237 33.6263 18.1237C34.1236 18.1237 34.6005 18.3213 34.9521 18.6729C35.3037 19.0246 35.5013 19.5015 35.5013 19.9987L35.5 20Z" fill="#9C121E"/>
</svg>
