<svg width="60" height="53" viewBox="0 0 60 53" fill="none" xmlns="http://www.w3.org/2000/svg">
<path d="M10.5095 17.3541L7.78227 14.6268C7.52509 14.3784 7.18063 14.241 6.82309 14.2441C6.46555 14.2472 6.12353 14.3906 5.8707 14.6434C5.61787 14.8963 5.47446 15.2383 5.47135 15.5958C5.46825 15.9534 5.60569 16.2978 5.85409 16.555L6.25364 16.9546H1.36364C1.00198 16.9546 0.655131 17.0982 0.3994 17.354C0.143668 17.6097 0 17.9565 0 18.3182C0 18.6799 0.143668 19.0267 0.3994 19.2824C0.655131 19.5382 1.00198 19.6818 1.36364 19.6818H6.25364L5.85409 20.0814C5.72385 20.2072 5.61997 20.3576 5.5485 20.524C5.47703 20.6904 5.43941 20.8693 5.43784 21.0504C5.43627 21.2314 5.47077 21.411 5.53933 21.5786C5.6079 21.7462 5.70915 21.8984 5.83719 22.0265C5.96522 22.1545 6.11748 22.2558 6.28506 22.3243C6.45265 22.3929 6.63221 22.4274 6.81327 22.4258C6.99434 22.4242 7.17327 22.3866 7.33964 22.3152C7.50601 22.2437 7.65648 22.1398 7.78227 22.0096L10.5095 19.2823C10.7652 19.0266 10.9088 18.6798 10.9088 18.3182C10.9088 17.9566 10.7652 17.6098 10.5095 17.3541ZM58.6364 16.9546H53.7464L54.1459 16.555C54.3943 16.2978 54.5318 15.9534 54.5286 15.5958C54.5255 15.2383 54.3821 14.8963 54.1293 14.6434C53.8765 14.3906 53.5345 14.2472 53.1769 14.2441C52.8194 14.241 52.4749 14.3784 52.2177 14.6268L49.4905 17.3541C49.2348 17.6098 49.0912 17.9566 49.0912 18.3182C49.0912 18.6798 49.2348 19.0266 49.4905 19.2823L52.2177 22.0096C52.4749 22.258 52.8194 22.3954 53.1769 22.3923C53.5345 22.3892 53.8765 22.2458 54.1293 21.993C54.3821 21.7401 54.5255 21.3981 54.5286 21.0406C54.5318 20.683 54.3943 20.3386 54.1459 20.0814L53.7464 19.6818H58.6364C58.998 19.6818 59.3449 19.5382 59.6006 19.2824C59.8563 19.0267 60 18.6799 60 18.3182C60 17.9565 59.8563 17.6097 59.6006 17.354C59.3449 17.0982 58.998 16.9546 58.6364 16.9546Z" fill="#9C121E"/>
<path d="M47.6876 2.36367C47.7961 2.01865 47.7631 1.64466 47.5959 1.32397C47.4286 1.00329 47.1409 0.762172 46.7958 0.653674C46.4508 0.545177 46.0768 0.578182 45.7561 0.745431C45.4354 0.912679 45.1943 1.20047 45.0858 1.54549C40.6745 15.6128 42.9531 20.6446 45.1567 25.51C46.1724 27.5525 46.9164 29.7191 47.3699 31.9546H12.6299C13.0835 29.7195 13.8276 27.5534 14.8431 25.5114C17.0467 20.6459 19.3254 15.6141 14.9154 1.54686C14.8617 1.37593 14.7748 1.21726 14.6597 1.0799C14.5447 0.942542 14.4037 0.829189 14.2449 0.746312C14.086 0.663436 13.9124 0.61266 13.7339 0.596882C13.5555 0.581104 13.3756 0.600634 13.2047 0.654356C13.0338 0.708079 12.8751 0.794942 12.7377 0.909986C12.6004 1.02503 12.487 1.166 12.4042 1.32485C12.2368 1.64567 12.2037 2.01983 12.3122 2.36504C16.4113 15.4396 14.4436 19.7869 12.3586 24.3891C10.494 27.9906 9.52876 31.99 9.54538 36.0455C9.54538 45.7982 12.2727 51.4164 12.3927 51.651C12.5059 51.8794 12.6809 52.0716 12.8978 52.2056C13.1148 52.3396 13.3649 52.4101 13.6199 52.4091H46.3867C46.6406 52.4089 46.8893 52.3378 47.1049 52.2038C47.3205 52.0699 47.4945 51.8784 47.6072 51.651C47.7272 51.4164 50.4545 45.7982 50.4545 36.0455C50.4712 31.9892 49.5065 27.9891 47.6427 24.3864C45.5563 19.7841 43.5886 15.4369 47.6876 2.36367ZM45.484 49.6819H31.3636V42.8637C31.3636 42.502 31.2199 42.1552 30.9642 41.8994C30.7084 41.6437 30.3616 41.5 29.9999 41.5C29.6383 41.5 29.2914 41.6437 29.0357 41.8994C28.78 42.1552 28.6363 42.502 28.6363 42.8637V49.6819H14.5158C12.9496 45.3095 12.1896 40.6892 12.2726 36.0455C12.2726 35.5655 12.2945 35.1223 12.3176 34.6819H47.6822C47.7054 35.1223 47.7272 35.5655 47.7272 36.0455C47.8109 40.6892 47.0508 45.3096 45.484 49.6819Z" fill="#9C121E"/>
<path d="M30 23.7727C30.3616 23.7727 30.7085 23.629 30.9642 23.3733C31.22 23.1175 31.3636 22.7707 31.3636 22.409V18.3181C31.3636 17.9565 31.22 17.6096 30.9642 17.3539C30.7085 17.0982 30.3616 16.9545 30 16.9545C29.6383 16.9545 29.2915 17.0982 29.0358 17.3539C28.78 17.6096 28.6364 17.9565 28.6364 18.3181V22.409C28.6364 22.7707 28.78 23.1175 29.0358 23.3733C29.2915 23.629 29.6383 23.7727 30 23.7727Z" fill="#9C121E"/>
</svg>
