<svg width="35" height="35" viewBox="0 0 35 35" fill="none" xmlns="http://www.w3.org/2000/svg">
<g clip-path="url(#clip0_7_40)">
<path d="M34.1839 17.8274C34.1839 16.3935 34.0676 15.3471 33.8158 14.262H17.4417V20.734H27.0529C26.8592 22.3424 25.8128 24.7646 23.4874 26.3923L23.4548 26.6089L28.632 30.6197L28.9907 30.6555C32.2849 27.6131 34.1839 23.1369 34.1839 17.8274Z" fill="#4285F4"/>
<path d="M17.4416 34.8797C22.1503 34.8797 26.1033 33.3295 28.9907 30.6554L23.4874 26.3922C22.0147 27.4193 20.0382 28.1362 17.4416 28.1362C12.8298 28.1362 8.91551 25.094 7.52018 20.8891L7.31566 20.9065L1.93234 25.0727L1.86194 25.2684C4.7298 30.9654 10.6206 34.8797 17.4416 34.8797Z" fill="#34A853"/>
<path d="M7.52016 20.8891C7.152 19.804 6.93892 18.6413 6.93892 17.4399C6.93892 16.2384 7.152 15.0758 7.50079 13.9907L7.49104 13.7596L2.04026 9.52643L1.86192 9.61126C0.679934 11.9754 0.00170898 14.6302 0.00170898 17.4399C0.00170898 20.2497 0.679934 22.9043 1.86192 25.2684L7.52016 20.8891Z" fill="#FBBC05"/>
<path d="M17.4416 6.74338C20.7164 6.74338 22.9254 8.15794 24.185 9.34006L29.1069 4.53437C26.0841 1.72462 22.1503 0 17.4416 0C10.6206 0 4.7298 3.91426 1.86194 9.61124L7.50081 13.9907C8.91551 9.78571 12.8298 6.74338 17.4416 6.74338Z" fill="#EB4335"/>
</g>
<defs>
<clipPath id="clip0_7_40">
<rect width="34.202" height="35" fill="white"/>
</clipPath>
</defs>
</svg>
