<svg width="300" height="144" viewBox="0 0 300 144" fill="none" xmlns="http://www.w3.org/2000/svg">
<path d="M12.4829 114.51V134.655C14.3765 135.352 15.7718 136.287 16.6687 137.458L15.9213 143.363H0.934347L0.149495 137.458C1.0963 136.287 2.50405 135.352 4.37274 134.655V99.2618C2.27981 98.5143 0.822225 97.58 0 96.4587L0.747477 90.5537H16.5192L31.7678 120.266C32.3409 121.337 32.889 122.596 33.4122 124.041C33.9604 125.461 34.5085 127.055 35.0567 128.825L35.5799 130.656L36.4395 130.357C35.717 125.822 35.3557 122.097 35.3557 119.182V99.3365C33.4621 98.614 32.0668 97.6547 31.1698 96.4587L31.9173 90.5537H46.9042L47.689 96.4587C46.7422 97.6547 45.3345 98.614 43.4658 99.3365V143.363H31.4688L16.0708 113.426C14.9745 111.358 13.8782 108.481 12.7819 104.793L12.2586 103.037L11.399 103.336C12.1216 107.87 12.4829 111.595 12.4829 114.51Z" fill="white"/>
<path d="M79.6437 140.149C76.1306 142.69 71.9945 143.961 67.2356 143.961C62.4517 143.961 59.113 142.977 57.2194 141.008C55.3507 139.015 54.4163 135.764 54.4163 131.254V113.576C52.5975 112.978 51.1897 112.118 50.1931 110.997L50.9406 105.092C53.8308 104.419 56.4968 104.083 58.9386 104.083C60.1595 104.083 61.2807 104.108 62.3022 104.158C63.3238 104.183 64.2581 104.245 65.1053 104.345V128.75C65.1053 131.515 65.5288 133.334 66.376 134.206C67.0487 134.904 68.0952 135.34 69.5154 135.514C70.9356 135.664 72.443 135.539 74.0376 135.141C75.6572 134.742 77.1023 134.069 78.373 133.122V113.576C76.5541 112.978 75.1464 112.118 74.1497 110.997L74.9346 105.092C77.775 104.419 80.4286 104.083 82.8952 104.083C84.1161 104.083 85.2373 104.108 86.2589 104.158C87.2804 104.183 88.2148 104.245 89.0619 104.345V134.169C90.8309 134.543 92.2387 134.979 93.2852 135.477V141.532C90.1956 143.151 86.3461 143.961 81.7366 143.961C80.441 143.064 79.7434 141.793 79.6437 140.149Z" fill="white"/>
<path d="M104.15 96.5009L108.1 98.9066L110.328 100.271V105.092H121.278V111.52H110.328V130.88C110.328 132.549 110.564 133.733 111.038 134.431C111.387 134.979 112.034 135.328 112.981 135.477C113.953 135.602 115.062 135.564 116.307 135.365C117.553 135.166 118.749 134.842 119.895 134.393L122.213 140.373C118.276 142.366 114.252 143.363 110.141 143.363C106.03 143.363 103.252 142.491 101.806 140.747C100.361 138.978 99.6387 136.411 99.6387 133.048V111.52H96.2003L95.3407 106.849C96.1629 105.877 97.8448 104.905 100.386 103.934C101.034 99.7227 101.882 97.946 104.15 96.5009Z" fill="white"/>
<path d="M147.851 114.51C144.014 114.51 141.335 115.245 139.816 116.715V134.244C144.001 135.041 146.842 136.112 148.337 137.458L147.552 143.363H125.651L124.903 137.458C125.601 136.486 127.009 135.627 129.127 134.879V113.576C127.308 112.978 125.9 112.118 124.903 110.997L125.651 105.092C128.304 105.092 130.771 104.58 133.088 104.58C134.21 104.58 135.276 104.487 136.278 104.306C137.224 104.331 138.096 104.295 138.844 104.345V109.166C140.015 107.771 141.522 106.624 143.366 105.727C144.911 105.005 146.456 104.581 148.001 104.457C149.545 104.332 150.704 104.444 151.476 104.793L151.252 114.735C150.255 114.585 149.122 114.51 147.851 114.51Z" fill="white"/>
<path d="M154.728 110.997L155.475 105.092C158.366 104.419 161.032 104.083 163.473 104.083C164.694 104.083 165.815 104.108 166.837 104.158C167.858 104.183 168.793 104.245 169.64 104.345V134.879C171.633 135.627 173.041 136.486 173.863 137.458L173.116 143.363H155.475L154.728 137.458C155.425 136.486 156.833 135.627 158.951 134.879V113.576C157.132 112.978 155.724 112.118 154.728 110.997Z" fill="white"/>
<path d="M207.537 129.348L213.181 130.058V143.363H178.124L177.376 137.009C178.049 136.137 179.457 135.29 181.6 134.468V99.486C179.482 98.7385 178.074 97.8789 177.376 96.9072L178.124 90.5537H196.063L196.811 96.9072C195.989 97.8789 194.593 98.7385 192.625 99.486V135.029H204.697C205.369 132.338 206.316 130.444 207.537 129.348Z" fill="white"/>
<path d="M215.498 110.997L216.245 105.092C219.135 104.419 221.801 104.083 224.243 104.083C225.464 104.083 226.585 104.108 227.607 104.158C228.628 104.183 229.563 104.245 230.41 104.345V134.879C232.403 135.627 233.811 136.486 234.633 137.458L233.886 143.363H216.245L215.498 137.458C216.195 136.486 217.603 135.627 219.721 134.879V113.576C217.902 112.978 216.494 112.118 215.498 110.997Z" fill="white"/>
<path d="M241.921 105.765V103.635C241.921 98.3524 243.067 94.3533 245.359 91.6375C246.555 90.2671 248.125 89.258 250.069 88.6102C252.037 87.9375 254.167 87.626 256.459 87.6759C258.752 87.7008 261.019 88.0496 263.262 88.7224C265.529 89.3951 267.547 90.3917 269.316 91.7123C269.341 91.8867 269.353 92.0984 269.353 92.3476C269.378 92.5968 269.391 92.8958 269.391 93.2446C269.391 93.6931 269.304 94.3783 269.129 95.3001C268.98 96.1971 268.755 97.1315 268.456 98.1032C268.157 99.05 267.809 99.8473 267.41 100.495H260.982C260.035 98.7261 259.549 97.0941 259.524 95.5991C258.951 95.4995 258.44 95.4496 257.992 95.4496C256.048 95.4496 254.666 95.9853 253.843 97.0567C253.021 98.1281 252.61 100.072 252.61 102.887V105.765H264.345V112.828H252.61V134.468C256.472 135.265 259.076 136.262 260.421 137.458L259.674 143.363H238.445L237.698 137.458C238.395 136.486 239.803 135.627 241.921 134.879V112.828H238.557L237.698 107.559C238.819 106.562 240.227 105.964 241.921 105.765Z" fill="white"/>
<path d="M285.312 143.961C279.183 143.961 274.573 142.329 271.484 139.065C268.394 135.801 266.849 131.054 266.849 124.826C266.849 121.063 267.385 117.824 268.456 115.108C269.528 112.368 270.985 110.25 272.829 108.755C276.392 105.914 280.553 104.494 285.312 104.494C288.476 104.494 291.142 105.017 293.31 106.064C295.503 107.085 297.16 108.817 298.281 111.259C299.427 113.676 300 116.977 300 121.163C300 124.85 298.181 126.694 294.543 126.694H277.949C278.149 129.908 278.971 132.176 280.416 133.496C281.886 134.817 284.203 135.477 287.368 135.477C289.087 135.477 290.731 135.278 292.301 134.879C293.896 134.456 295.054 134.044 295.777 133.646L296.861 133.048L299.14 139.14C298.866 139.464 298.43 139.912 297.832 140.485C297.434 140.859 296.624 141.32 295.403 141.868C294.182 142.416 292.687 142.902 290.918 143.326C289.174 143.749 287.305 143.961 285.312 143.961ZM278.024 120.341L290.133 119.855C290.233 119.232 290.283 118.372 290.283 117.276C290.283 116.254 289.872 115.171 289.049 114.024C288.227 112.878 286.807 112.305 284.789 112.305C282.771 112.305 281.226 112.916 280.154 114.137C279.083 115.357 278.373 117.425 278.024 120.341Z" fill="white"/>
<path d="M123.67 69.7613H120.182V73.2496H123.67V69.7613Z" fill="white"/>
<path d="M141.111 69.7613H137.623V73.2496H141.111V69.7613Z" fill="white"/>
<path d="M132.391 69.7613H128.902V73.2496H132.391V69.7613Z" fill="white"/>
<path d="M137.623 78.4819H134.135V81.9701H137.623V78.4819Z" fill="white"/>
<path d="M127.158 78.4819H123.67V81.9701H127.158V78.4819Z" fill="white"/>
<path d="M137.623 61.0408H134.135V64.529H137.623V61.0408Z" fill="white"/>
<path d="M127.158 61.0408H123.67V64.529H127.158V61.0408Z" fill="white"/>
<path d="M132.391 52.3202H128.902V55.8084H132.391V52.3202Z" fill="white"/>
<path d="M201.847 70.9473L201.758 70.7101C200.811 68.2201 199.218 66.0275 197.142 64.3585C195.065 62.6895 192.582 61.6044 189.946 61.2152V53.9666C189.929 43.6353 187.564 33.4429 183.029 24.1597L186.437 2.0095C186.491 1.65936 186.437 1.3011 186.282 0.982399C186.128 0.6637 185.88 0.399675 185.571 0.22546C185.263 0.0512438 184.908 -0.0249014 184.556 0.00715694C184.203 0.0392153 183.868 0.177957 183.596 0.404919C178.712 4.28112 174.625 9.06747 171.562 14.4991C170.852 10.7728 169.741 7.13423 168.248 3.64723L167.137 1.05722C167.002 0.743634 166.779 0.4764 166.494 0.288613C166.209 0.100825 165.875 0.000733832 165.534 0.000733832C165.193 0.000733832 164.859 0.100825 164.574 0.288613C164.289 0.4764 164.066 0.743634 163.931 1.05722L162.82 3.64723C161.327 7.13423 160.216 10.7728 159.506 14.4991C156.443 9.06747 152.357 4.28112 147.472 0.404919C147.2 0.177957 146.865 0.0392153 146.513 0.00715694C146.16 -0.0249014 145.805 0.0512438 145.497 0.22546C145.189 0.399675 144.94 0.6637 144.786 0.982399C144.631 1.3011 144.577 1.65936 144.631 2.0095L148.039 24.1597C143.709 33.0435 141.362 42.7622 141.16 52.6429L132.155 37.4691C131.989 37.2248 131.766 37.0249 131.505 36.8868C131.243 36.7486 130.952 36.6764 130.657 36.6764C130.362 36.6764 130.071 36.7486 129.81 36.8868C129.548 37.0249 129.325 37.2248 129.159 37.4691L96.0207 93.2807C95.791 93.6641 95.7172 94.121 95.8145 94.5572C95.9119 94.9933 96.173 95.3755 96.5439 95.6248L102.701 99.7252C110.364 104.797 119.263 107.687 128.444 108.085C137.624 108.482 146.74 106.373 154.813 101.982L154.987 102.219C157.254 105.242 160.591 107.282 164.315 107.92C168.038 108.558 171.865 107.745 175.008 105.65L175.994 104.992L176.974 105.646C180.117 107.742 183.944 108.554 187.667 107.916C191.391 107.279 194.729 105.24 196.996 102.218L197.451 101.611C201.623 96.0233 203.884 89.241 203.899 82.2684C203.902 78.4019 203.207 74.5667 201.847 70.9473ZM182.246 6.30874L179.729 22.6703H172.579C173.226 16.4298 177.956 10.4964 182.246 6.30874ZM165.529 6.20933C167.62 11.4562 168.786 17.0254 168.977 22.6703H162.081C162.271 17.0254 163.438 11.4562 165.529 6.20933ZM158.474 22.6703H151.323L148.812 6.30874C153.102 10.4964 157.832 16.4298 158.474 22.6703ZM144.599 53.9666C144.611 44.3424 146.77 34.842 150.92 26.1585H180.138C184.288 34.842 186.447 44.3424 186.458 53.9666V61.1175C183.207 61.4236 180.145 62.7839 177.738 64.9912V63.1948C177.735 61.5065 177.342 59.8418 176.59 58.3304C175.692 56.5195 174.305 54.9964 172.585 53.9341C170.866 52.8717 168.883 52.3126 166.861 52.3202H163.785V55.8084H166.861C168.234 55.8036 169.581 56.1836 170.749 56.9053C171.917 57.6269 172.86 58.6614 173.47 59.8914C173.982 60.9181 174.248 62.0494 174.249 63.1965V64.986C172.566 63.4286 170.544 62.2827 168.343 61.6384C166.142 60.994 163.822 60.8687 161.564 61.2723C159.307 61.6759 157.173 62.5974 155.332 63.9644C153.491 65.3314 151.991 67.1067 150.952 69.1509L144.599 58.4525V53.9666ZM130.647 41.7823L153.528 80.3272L148.541 83.641C143.169 87.2227 136.829 89.0724 130.374 88.9411C123.919 88.8099 117.66 86.7039 112.438 82.9067L108.1 79.7499L130.647 41.7823ZM156.944 86.0828L150.683 90.1483C144.68 93.9193 137.736 95.9209 130.647 95.923C123.326 95.9343 116.19 93.6297 110.26 89.339L104.734 85.4252L106.314 82.762L110.392 85.727C116.189 89.9428 123.139 92.2813 130.305 92.4275C137.472 92.5738 144.511 90.5208 150.475 86.545L155.31 83.3218L156.944 86.0828ZM104.631 96.8213L99.8542 93.6435L102.947 88.4356L108.242 92.1854C114.76 96.8978 122.603 99.4271 130.647 99.4113C138.414 99.4326 146.026 97.2309 152.582 93.0662L158.727 89.0774L161.439 93.6435L156.662 96.8213C148.945 101.923 139.898 104.644 130.647 104.644C121.395 104.644 112.348 101.923 104.631 96.8213ZM194.656 99.5194L194.2 100.128C192.468 102.436 189.917 103.993 187.073 104.479C184.228 104.966 181.306 104.345 178.904 102.744L176.956 101.445C176.67 101.254 176.333 101.152 175.988 101.152C175.644 101.152 175.307 101.254 175.02 101.445L173.072 102.744C170.683 104.338 167.776 104.96 164.944 104.484C162.112 104.009 159.568 102.472 157.83 100.186C158.08 100.025 158.34 99.8857 158.587 99.7217L164.746 95.6283C165.117 95.379 165.378 94.9968 165.475 94.5607C165.572 94.1245 165.499 93.6676 165.269 93.2842L153.151 72.8781C153.231 72.6426 153.306 72.4072 153.393 72.1804L153.5 71.8944C154.222 69.9845 155.444 68.3033 157.037 67.0263C158.631 65.7493 160.537 64.9232 162.559 64.634C164.58 64.3449 166.642 64.6034 168.53 65.3825C170.417 66.1616 172.061 67.4329 173.29 69.0637L174.598 70.8078C174.768 71.0138 174.981 71.1797 175.222 71.2936C175.463 71.4076 175.727 71.4666 175.994 71.4666C176.26 71.4666 176.524 71.4076 176.765 71.2936C177.006 71.1797 177.219 71.0138 177.389 70.8078L178.673 69.0951C179.9 67.4568 181.546 66.179 183.438 65.3956C185.33 64.6122 187.397 64.3521 189.424 64.6424C191.451 64.9327 193.362 65.7629 194.957 67.0459C196.553 68.3288 197.774 70.0174 198.493 71.9345L198.582 72.1717C200.276 76.6931 200.805 81.5685 200.119 86.3481C199.433 91.1276 197.554 95.6574 194.656 99.5194Z" fill="white"/>
<path d="M153.32 55.8084C153.783 55.8083 154.226 55.6245 154.553 55.2974L158.041 51.8092L155.575 49.343L153.32 51.5981L151.065 49.343L148.599 51.8092L152.087 55.2974C152.414 55.6245 152.858 55.8083 153.32 55.8084ZM172.505 36.6232C172.968 36.6231 173.411 36.4393 173.738 36.1122L177.227 32.6239L174.76 30.1578L172.505 32.4129L170.25 30.1578L167.784 32.6239L171.272 36.1122C171.599 36.4393 172.043 36.6231 172.505 36.6232ZM173.016 46.5768L176.505 50.0651C176.832 50.392 177.275 50.5757 177.738 50.5757C178.2 50.5757 178.644 50.392 178.971 50.0651L182.459 46.5768L179.993 44.1107L177.738 46.3658L175.482 44.1107L173.016 46.5768ZM159.063 43.0886L162.552 46.5768C162.879 46.9038 163.322 47.0875 163.785 47.0875C164.247 47.0875 164.691 46.9038 165.018 46.5768L168.506 43.0886L166.04 40.6224L163.785 42.8776L161.53 40.6224L159.063 43.0886ZM156.808 36.6232C157.271 36.6231 157.714 36.4393 158.041 36.1122L161.53 32.6239L159.063 30.1578L156.808 32.4129L154.553 30.1578L152.087 32.6239L155.575 36.1122C155.902 36.4393 156.346 36.6231 156.808 36.6232Z" fill="white"/>
<path d="M224.974 100.22C220.706 100.22 218.571 98.2914 218.571 94.4343C218.571 90.5257 220.706 88.5714 224.974 88.5714C229.294 88.5714 231.454 90.5257 231.454 94.4343C231.454 98.2914 229.294 100.22 224.974 100.22Z" fill="white"/>
</svg>
