<svg width="42" height="53" viewBox="0 0 42 53" fill="none" xmlns="http://www.w3.org/2000/svg">
<path d="M38.6878 2.36367C38.7963 2.01865 38.7633 1.64466 38.596 1.32397C38.4288 1.00328 38.141 0.762168 37.796 0.653671C37.4509 0.545173 37.0769 0.578178 36.7563 0.745427C36.4356 0.912675 36.1945 1.20047 36.086 1.54549C31.6746 15.6128 33.9532 20.6446 36.1569 25.51C37.1725 27.5525 37.9165 29.7191 38.37 31.9546H3.63005C4.08367 29.7195 4.82771 27.5534 5.84323 25.5114C8.04686 20.6459 10.3255 15.6141 5.9155 1.54685C5.86178 1.37593 5.77491 1.21725 5.65987 1.0799C5.54483 0.942538 5.40385 0.829185 5.245 0.746308C5.08615 0.663432 4.91253 0.612656 4.73406 0.596878C4.55558 0.5811 4.37575 0.60063 4.20482 0.654353C4.03389 0.708075 3.87522 0.794938 3.73786 0.909982C3.6005 1.02503 3.48715 1.166 3.40427 1.32485C3.2369 1.64567 3.20382 2.01983 3.31232 2.36503C7.41141 15.4396 5.44368 19.7868 3.35868 24.3891C1.49408 27.9906 0.52888 31.99 0.545499 36.0455C0.545499 45.7982 3.27277 51.4164 3.39277 51.6509C3.50599 51.8794 3.681 52.0716 3.89794 52.2056C4.11488 52.3396 4.36505 52.4101 4.62004 52.4091H37.3869C37.6407 52.4089 37.8894 52.3378 38.105 52.2038C38.3207 52.0699 38.4946 51.8784 38.6073 51.6509C38.7273 51.4164 41.4546 45.7982 41.4546 36.0455C41.4714 31.9892 40.5067 27.9891 38.6428 24.3864C36.5564 19.7841 34.5887 15.4369 38.6878 2.36367ZM36.4841 49.6819H22.3637V42.8637C22.3637 42.502 22.22 42.1552 21.9643 41.8994C21.7086 41.6437 21.3617 41.5 21 41.5C20.6384 41.5 20.2915 41.6437 20.0358 41.8994C19.7801 42.1552 19.6364 42.502 19.6364 42.8637V49.6819H5.51595C3.94976 45.3095 3.18972 40.6892 3.27277 36.0455C3.27277 35.5655 3.29459 35.1223 3.31777 34.6819H38.6823C38.7055 35.1223 38.7273 35.5655 38.7273 36.0455C38.811 40.6892 38.051 45.3096 36.4841 49.6819Z" fill="#9C121E"/>
<path d="M21.0001 23.7727C21.3618 23.7727 21.7086 23.629 21.9643 23.3733C22.2201 23.1175 22.3637 22.7707 22.3637 22.409V18.3181C22.3637 17.9565 22.2201 17.6096 21.9643 17.3539C21.7086 17.0982 21.3618 16.9545 21.0001 16.9545C20.6385 16.9545 20.2916 17.0982 20.0359 17.3539C19.7801 17.6096 19.6365 17.9565 19.6365 18.3181V22.409C19.6365 22.7707 19.7801 23.1175 20.0359 23.3733C20.2916 23.629 20.6385 23.7727 21.0001 23.7727Z" fill="#9C121E"/>
</svg>
