<svg width="60" height="53" viewBox="0 0 60 53" fill="none" xmlns="http://www.w3.org/2000/svg">
<path d="M50.4548 19.6818H55.3448L54.9453 20.0814C54.6969 20.3386 54.5594 20.683 54.5626 21.0406C54.5657 21.3981 54.7091 21.7401 54.9619 21.993C55.2147 22.2458 55.5567 22.3892 55.9143 22.3923C56.2718 22.3954 56.6163 22.258 56.8735 22.0096L59.6007 19.2823C59.8564 19.0266 60 18.6798 60 18.3182C60 17.9566 59.8564 17.6098 59.6007 17.3541L56.8735 14.6268C56.6163 14.3785 56.2718 14.241 55.9143 14.2441C55.5567 14.2472 55.2147 14.3906 54.9619 14.6435C54.7091 14.8963 54.5657 15.2383 54.5626 15.5958C54.5594 15.9534 54.6969 16.2978 54.9453 16.555L55.3448 16.9546H50.4548C50.0932 16.9546 49.7463 17.0982 49.4906 17.354C49.2349 17.6097 49.0912 17.9566 49.0912 18.3182C49.0912 18.6799 49.2349 19.0267 49.4906 19.2824C49.7463 19.5382 50.0932 19.6818 50.4548 19.6818Z" fill="#9C121E"/>
<path d="M9.54516 17.3014H4.65516L5.05471 16.9018C5.30311 16.6447 5.44055 16.3002 5.43745 15.9427C5.43434 15.5851 5.29093 15.2431 5.0381 14.9903C4.78527 14.7374 4.44325 14.594 4.08571 14.5909C3.72817 14.5878 3.38371 14.7253 3.12653 14.9737L0.399254 17.7009C0.143611 17.9566 0 18.3034 0 18.665C0 19.0266 0.143611 19.3734 0.399254 19.6291L3.12653 22.3564C3.38371 22.6048 3.72817 22.7422 4.08571 22.7391C4.44325 22.736 4.78527 22.5926 5.0381 22.3398C5.29093 22.0869 5.43434 21.7449 5.43745 21.3874C5.44055 21.0298 5.30311 20.6854 5.05471 20.4282L4.65516 20.0287H9.54516C9.90682 20.0287 10.2537 19.885 10.5094 19.6293C10.7651 19.3735 10.9088 19.0267 10.9088 18.665C10.9088 18.3034 10.7651 17.9565 10.5094 17.7008C10.2537 17.445 9.90682 17.3014 9.54516 17.3014Z" fill="#9C121E"/>
<path d="M47.6877 2.36367C47.7962 2.01865 47.7631 1.64466 47.5959 1.32397C47.4286 1.00329 47.1409 0.762172 46.7958 0.653674C46.4508 0.545177 46.0768 0.578182 45.7561 0.745431C45.4355 0.912679 45.1943 1.20047 45.0858 1.54549C40.6745 15.6128 42.9531 20.6446 45.1567 25.51C46.1724 27.5525 46.9164 29.7191 47.3699 31.9546H12.6299C13.0836 29.7195 13.8276 27.5534 14.8431 25.5114C17.0467 20.6459 19.3254 15.6141 14.9154 1.54686C14.8617 1.37593 14.7748 1.21726 14.6597 1.0799C14.5447 0.942542 14.4037 0.829189 14.2449 0.746312C14.086 0.663436 13.9124 0.61266 13.7339 0.596882C13.5555 0.581104 13.3756 0.600634 13.2047 0.654356C13.0338 0.708079 12.8751 0.794942 12.7377 0.909986C12.6004 1.02503 12.487 1.166 12.4042 1.32485C12.2368 1.64567 12.2037 2.01983 12.3122 2.36504C16.4113 15.4396 14.4436 19.7869 12.3586 24.3891C10.494 27.9906 9.52876 31.99 9.54538 36.0455C9.54538 45.7982 12.2727 51.4164 12.3927 51.651C12.5059 51.8794 12.6809 52.0716 12.8978 52.2056C13.1148 52.3396 13.3649 52.4101 13.6199 52.4091H46.3867C46.6406 52.4089 46.8893 52.3378 47.1049 52.2038C47.3205 52.0699 47.4945 51.8784 47.6072 51.651C47.7272 51.4164 50.4545 45.7982 50.4545 36.0455C50.4712 31.9892 49.5065 27.9891 47.6427 24.3864C45.5563 19.7841 43.5886 15.4369 47.6877 2.36367ZM45.484 49.6819H31.3636V42.8637C31.3636 42.502 31.2199 42.1552 30.9642 41.8994C30.7084 41.6437 30.3616 41.5 29.9999 41.5C29.6383 41.5 29.2914 41.6437 29.0357 41.8994C28.78 42.1552 28.6363 42.502 28.6363 42.8637V49.6819H14.5158C12.9496 45.3095 12.1896 40.6892 12.2727 36.0455C12.2727 35.5655 12.2945 35.1223 12.3177 34.6819H47.6822C47.7054 35.1223 47.7272 35.5655 47.7272 36.0455C47.8109 40.6892 47.0508 45.3096 45.484 49.6819Z" fill="#9C121E"/>
<path d="M30 23.7727C30.3616 23.7727 30.7085 23.629 30.9642 23.3733C31.22 23.1175 31.3636 22.7707 31.3636 22.409V18.3181C31.3636 17.9565 31.22 17.6096 30.9642 17.3539C30.7085 17.0982 30.3616 16.9545 30 16.9545C29.6383 16.9545 29.2915 17.0982 29.0358 17.3539C28.78 17.6096 28.6364 17.9565 28.6364 18.3181V22.409C28.6364 22.7707 28.78 23.1175 29.0358 23.3733C29.2915 23.629 29.6383 23.7727 30 23.7727Z" fill="#9C121E"/>
</svg>
