<svg width="80" height="80" viewBox="0 0 80 80" fill="none" xmlns="http://www.w3.org/2000/svg">
<path d="M69.5198 51.1893L66.9261 23.1541C66.7685 21.4696 65.972 19.9093 64.7003 18.7935C63.4285 17.6777 61.7779 17.0911 60.0872 17.1539C58.3965 17.2168 56.7939 17.9244 55.6085 19.1316C54.4231 20.3387 53.7447 21.9538 53.7126 23.6454L53.5076 27.5341C48.9077 20.0386 39.5391 4.81571 39.4272 4.63384C38.9681 3.87406 38.361 3.21424 37.642 2.69354C36.923 2.17285 36.1068 1.80188 35.2417 1.60264C34.398 1.40362 33.5229 1.37603 32.6683 1.5215C31.8138 1.66697 30.9971 1.98254 30.2668 2.4495C28.991 3.26362 28.0304 4.48785 27.5431 5.92069L25.8837 3.20449C25.4247 2.44477 24.8177 1.785 24.0988 1.2643C23.3799 0.743609 22.5638 0.372602 21.6988 0.173293C20.8548 -0.025986 19.9794 -0.0537114 19.1245 0.0917616C18.2696 0.237235 17.4526 0.552942 16.722 1.02015C15.2315 1.9915 14.1786 3.50589 13.7872 5.24138C13.3957 6.97687 13.6966 8.7966 14.6258 10.3137L15.5714 11.8612C14.0671 11.6691 12.543 12.0113 11.2652 12.8281C9.77472 13.7994 8.72182 15.3138 8.33037 17.0493C7.93893 18.7848 8.23979 20.6045 9.16902 22.1217L12.4033 27.4153C10.8989 27.2213 9.37423 27.5636 8.09717 28.3822C6.60644 29.3533 5.55329 30.8676 5.1616 32.6031C4.76992 34.3386 5.07059 36.1585 5.9997 37.6758L23.4144 66.1971C28.2343 74.0845 37.2041 80 46.6465 80C50.3628 79.9998 54.0198 79.0688 57.2838 77.2919C57.31 77.2775 57.3363 77.2626 57.3619 77.2463L59.3844 75.9601C64.3999 72.7695 67.3755 69.1602 69.0305 64.259C70.2423 60.6735 70.0804 57.4054 69.7892 54.0955C69.6517 52.5211 69.5198 51.1893 69.5198 51.1893ZM66.6624 63.459C65.2018 67.7821 62.5437 70.9864 58.0425 73.8501L56.0594 75.1113C44.6134 81.2431 31.5617 74.7376 25.5475 64.8928L8.13404 36.3727C7.54345 35.4154 7.34937 34.2656 7.59305 33.1675C7.83672 32.0695 8.49895 31.1097 9.43902 30.4921C10.3749 29.9249 11.4969 29.7505 12.5608 30.0069C13.6247 30.2632 14.5442 30.9296 15.1189 31.8609L26.1956 49.9918C26.3722 50.2705 26.6503 50.4696 26.971 50.547C27.2917 50.6245 27.63 50.5742 27.9143 50.4068C28.0544 50.3211 28.1762 50.2088 28.2729 50.076C28.3695 49.9433 28.439 49.7929 28.4775 49.6333C28.516 49.4736 28.5227 49.308 28.4971 49.1458C28.4716 48.9837 28.4143 48.8281 28.3287 48.6881L11.3021 20.8179C10.7113 19.8608 10.517 18.711 10.7606 17.6129C11.0042 16.5148 11.6664 15.555 12.6065 14.9374C13.5431 14.3688 14.6667 14.1941 15.7317 14.4515C16.7968 14.7089 17.7166 15.3775 18.2901 16.3111L35.3198 44.1856C35.497 44.4637 35.7749 44.6623 36.0954 44.7398C36.4159 44.8173 36.7539 44.7676 37.0385 44.6013C37.1786 44.5156 37.3004 44.4032 37.3971 44.2705C37.4937 44.1378 37.5633 43.9873 37.6017 43.8277C37.6402 43.6681 37.6469 43.5025 37.6213 43.3403C37.5958 43.1782 37.5386 43.0226 37.4529 42.8825L16.7595 9.01064C16.1685 8.05345 15.9741 6.90351 16.2177 5.80525C16.4613 4.707 17.1236 3.74706 18.0639 3.12949C19.0013 2.55988 20.1263 2.38521 21.1923 2.64377C22.2584 2.90234 23.1784 3.57304 23.7506 4.50884L44.4434 38.3807C44.6202 38.6592 44.8983 38.8581 45.2189 38.9355C45.5395 39.0129 45.8777 38.9628 46.1621 38.7957C46.445 38.6228 46.6476 38.3446 46.7254 38.0223C46.8032 37.7 46.7499 37.36 46.5771 37.077L30.303 10.4387C29.7119 9.48162 29.5176 8.33166 29.7613 7.23346C30.005 6.13526 30.6675 5.17546 31.608 4.55821C32.0585 4.27025 32.5623 4.07583 33.0895 3.9865C33.6167 3.89717 34.1565 3.91476 34.6767 4.03822C35.2186 4.16357 35.7298 4.39658 36.1799 4.7234C36.6299 5.05022 37.0097 5.46419 37.2966 5.94069C37.4329 6.16256 50.9952 28.2003 53.4776 32.269C53.6167 32.4967 53.8251 32.674 54.0722 32.7748C54.3193 32.8756 54.5922 32.8947 54.8509 32.8292C55.1096 32.7638 55.3406 32.6172 55.51 32.411C55.6795 32.2049 55.7785 31.9499 55.7926 31.6834L56.2101 23.751C56.217 22.6915 56.6317 21.6753 57.3679 20.9133C58.1041 20.1513 59.1054 19.702 60.1641 19.6586C61.2227 19.6152 62.2575 19.981 63.0536 20.6802C63.8498 21.3793 64.3462 22.3581 64.4399 23.4135C64.4399 23.4135 67.1617 52.7505 67.2992 54.3136C67.5761 57.4642 67.7199 60.3279 66.6624 63.459ZM10.3946 68.8289C7.55843 67.8796 5.17284 64.8584 3.88537 62.3466C2.38181 59.4251 2.08795 56.0293 3.06726 52.893C3.16837 52.5772 3.1399 52.2342 2.98812 51.9394C2.83633 51.6447 2.57366 51.4222 2.2579 51.3211C1.94213 51.22 1.59913 51.2485 1.30435 51.4003C1.00957 51.5521 0.787161 51.8147 0.686049 52.1305C-0.492821 55.8974 -0.142612 59.9769 1.66103 63.4878C2.39414 64.919 5.13597 69.7058 9.60151 71.2002C9.75721 71.2522 9.92164 71.2731 10.0854 71.2617C10.2492 71.2502 10.4091 71.2066 10.556 71.1333C10.7029 71.06 10.834 70.9585 10.9417 70.8346C11.0494 70.7107 11.1316 70.5668 11.1837 70.4111C11.2358 70.2554 11.2566 70.091 11.2452 69.9272C11.2337 69.7634 11.1901 69.6035 11.1168 69.4566C11.0436 69.3097 10.9421 69.1786 10.8182 69.071C10.6942 68.9633 10.5503 68.881 10.3946 68.8289ZM13.5196 62.5778C12.0508 62.0866 10.7946 60.4791 10.1071 59.1372C9.31233 57.5943 9.15631 55.8006 9.67276 54.1436C9.7241 53.9869 9.74395 53.8217 9.73117 53.6574C9.71839 53.493 9.67323 53.3328 9.5983 53.186C9.52336 53.0392 9.42013 52.9087 9.29454 52.8019C9.16895 52.6951 9.02349 52.6143 8.86652 52.564C8.70955 52.5136 8.54418 52.4949 8.37993 52.5087C8.21568 52.5226 8.05579 52.5688 7.90947 52.6447C7.76314 52.7206 7.63327 52.8246 7.52733 52.9509C7.42139 53.0772 7.34147 53.2232 7.29218 53.3805C6.57531 55.6679 6.78724 58.1455 7.88217 60.2779C8.32466 61.1416 9.98213 64.0309 12.7265 64.949C13.0411 65.0502 13.3828 65.0243 13.6785 64.8768C13.9743 64.7293 14.2006 64.4719 14.3089 64.1597C14.4139 63.8452 14.3897 63.502 14.2417 63.2054C14.0936 62.9087 13.8339 62.683 13.5196 62.5778ZM77.4259 12.9087C76.5384 11.5862 73.2904 7.20067 68.7623 6.27943C68.4375 6.21338 68.0996 6.27909 67.8232 6.46211C67.5468 6.64513 67.3544 6.93047 67.2883 7.25535C67.2222 7.58024 67.288 7.91806 67.471 8.19449C67.654 8.47093 67.9393 8.66334 68.2642 8.72939C71.1204 9.31063 73.7972 11.9893 75.3503 14.3024C77.1685 17.011 77.867 20.3186 77.2991 23.531C77.2693 23.6925 77.2718 23.8582 77.3061 24.0188C77.3405 24.1794 77.4062 24.3316 77.4994 24.4667C77.5926 24.6019 77.7115 24.7174 77.8494 24.8066C77.9872 24.8958 78.1413 24.957 78.3028 24.9866C78.3776 25.0005 78.4536 25.0074 78.5297 25.0072C78.8218 25.0069 79.1046 24.9043 79.329 24.7171C79.5533 24.53 79.705 24.2702 79.7578 23.9829C80.4419 20.1288 79.6061 16.1596 77.4259 12.9087ZM66.4949 12.8324C66.1699 12.7665 65.832 12.8323 65.5556 13.0154C65.2792 13.1986 65.0868 13.484 65.0208 13.809C64.9549 14.134 65.0207 14.4718 65.2038 14.7483C65.387 15.0247 65.6724 15.2171 65.9974 15.283C67.4705 15.583 68.8805 17.008 69.7086 18.2411C70.6699 19.6724 71.0395 21.4205 70.7398 23.1185C70.7101 23.28 70.7125 23.4457 70.7468 23.6062C70.7811 23.7667 70.8467 23.9189 70.9399 24.0541C71.033 24.1892 71.1519 24.3047 71.2897 24.394C71.4275 24.4832 71.5815 24.5444 71.7429 24.5741C71.9043 24.6038 72.0701 24.6014 72.2306 24.5671C72.3911 24.5328 72.5433 24.4672 72.6785 24.374C72.8136 24.2809 72.9291 24.162 73.0183 24.0242C73.1076 23.8865 73.1688 23.7324 73.1985 23.571C73.6145 21.2311 73.1073 18.8211 71.7835 16.8474C71.2479 16.0493 69.2823 13.3993 66.4949 12.8324Z" fill="white"/>
</svg>
