<?xml version="1.0" encoding="UTF-8" standalone="no"?>
<!-- Created with Inkscape (http://www.inkscape.org/) -->

<svg
   width="210mm"
   height="297mm"
   viewBox="0 0 210 297"
   version="1.1"
   id="svg5"
   xml:space="preserve"
   inkscape:version="1.2.2 (732a01da63, 2022-12-09)"
   sodipodi:docname="iconeExerModerado.svg"
   xmlns:inkscape="http://www.inkscape.org/namespaces/inkscape"
   xmlns:sodipodi="http://sodipodi.sourceforge.net/DTD/sodipodi-0.dtd"
   xmlns="http://www.w3.org/2000/svg"
   xmlns:svg="http://www.w3.org/2000/svg"><sodipodi:namedview
     id="namedview7"
     pagecolor="#ffffff"
     bordercolor="#000000"
     borderopacity="0.25"
     inkscape:showpageshadow="2"
     inkscape:pageopacity="0.0"
     inkscape:pagecheckerboard="0"
     inkscape:deskcolor="#d1d1d1"
     inkscape:document-units="mm"
     showgrid="false"
     inkscape:zoom="1.6819304"
     inkscape:cx="378.13693"
     inkscape:cy="270.81977"
     inkscape:window-width="1920"
     inkscape:window-height="1111"
     inkscape:window-x="-9"
     inkscape:window-y="-9"
     inkscape:window-maximized="1"
     inkscape:current-layer="layer1" /><defs
     id="defs2" /><g
     inkscape:label="Camada 1"
     inkscape:groupmode="layer"
     id="layer1"><path
       style="fill:#9c121e;fill-opacity:1;stroke-width:0.111747"
       d="m 127.20043,119.72918 c -0.31493,-0.14665 -0.76669,-0.49356 -1.02528,-0.78734 -0.89519,-1.01699 -0.81431,2.92949 -0.81431,-39.736409 0,-43.186962 -0.10375,-38.799154 0.94258,-39.845524 1.01669,-1.0167 -0.17023,-0.942572 15.09329,-0.942572 14.88254,0 13.98793,-0.04413 14.89855,0.735301 0.24927,0.213359 0.59456,0.675784 0.76733,1.027606 l 0.31411,0.639673 V 79.261311 117.7027 l -0.30013,0.5688 c -0.34365,0.6513 -0.93475,1.21213 -1.59228,1.51078 -0.4337,0.19699 -1.07226,0.2064 -14.08758,0.20771 l -13.63328,10e-4 -0.563,-0.26216 z M 150.16895,79.037111 V 46.126559 l -8.52081,0.02862 -8.52079,0.02862 -0.0281,32.881922 -0.0281,32.881909 h 8.54893 8.54893 z M 44.510045,119.3388 c -0.563713,-0.25693 -1.124977,-0.88853 -1.277426,-1.43749 -0.181393,-0.6532 -0.16308,-36.229799 0.01896,-36.839059 0.176502,-0.59072 0.935002,-1.35582 1.499535,-1.51257 0.295264,-0.082 4.868275,-0.11893 14.566525,-0.11768 13.432428,0.002 14.158449,0.0119 14.584098,0.20534 0.480865,0.21845 1.121938,0.87355 1.291636,1.31988 0.06298,0.16565 0.104261,7.52131 0.104261,18.57608 v 18.301869 l -0.260014,0.4925 c -0.143006,0.27088 -0.474191,0.64337 -0.735971,0.82775 l -0.475957,0.33525 -14.43385,0.0261 c -13.771863,0.025 -14.454394,0.0168 -14.881801,-0.17802 z m 42.714981,0.0862 c -1.085201,-0.25567 -2.130239,-1.13002 -2.633269,-2.20316 l -0.298386,-0.6366 V 87.083701 57.582169 l 0.325978,-0.664868 c 0.572673,-1.168015 1.595959,-1.945214 2.88237,-2.189169 0.340342,-0.06453 5.467914,-0.106597 12.870721,-0.105545 13.27718,0.0021 13.04365,-0.0083 14.07044,0.593768 0.68104,0.399121 1.35835,1.194729 1.66707,1.958263 l 0.25517,0.631047 0.0308,28.775166 c 0.0211,19.618279 -0.006,29.017829 -0.0861,29.537709 -0.24545,1.6011 -1.21055,2.75501 -2.68906,3.21518 -0.65643,0.20429 -1.19131,0.2124 -13.32941,0.20161 -6.955033,-0.006 -12.834879,-0.0559 -13.066313,-0.11036 z"
       id="path5457"
       sodipodi:nodetypes="csssssscccssccccccccccccccsssccsscsscccccscccssccscccsccc" /></g></svg>
