<?xml version="1.0" encoding="UTF-8" standalone="no"?>
<!-- Created with Inkscape (http://www.inkscape.org/) -->

<svg
   width="210mm"
   height="297mm"
   viewBox="0 0 210 297"
   version="1.1"
   id="svg1"
   xml:space="preserve"
   inkscape:version="1.3.2 (091e20e, 2023-11-25, custom)"
   sodipodi:docname="iconeExerLeve.svg"
   xmlns:inkscape="http://www.inkscape.org/namespaces/inkscape"
   xmlns:sodipodi="http://sodipodi.sourceforge.net/DTD/sodipodi-0.dtd"
   xmlns="http://www.w3.org/2000/svg"
   xmlns:svg="http://www.w3.org/2000/svg"><sodipodi:namedview
     id="namedview1"
     pagecolor="#ffffff"
     bordercolor="#000000"
     borderopacity="0.25"
     inkscape:showpageshadow="2"
     inkscape:pageopacity="0.0"
     inkscape:pagecheckerboard="0"
     inkscape:deskcolor="#d1d1d1"
     inkscape:document-units="mm"
     inkscape:zoom="1.0343421"
     inkscape:cx="478.56508"
     inkscape:cy="394.93704"
     inkscape:window-width="1920"
     inkscape:window-height="1017"
     inkscape:window-x="-8"
     inkscape:window-y="-8"
     inkscape:window-maximized="1"
     inkscape:current-layer="layer1" /><defs
     id="defs1" /><g
     inkscape:label="Camada 1"
     inkscape:groupmode="layer"
     id="layer1"><path
       style="fill:#9c121e;fill-opacity:1;stroke-width:0.0155244"
       d="m 115.16593,114.30608 c -0.0437,-0.0204 -0.10651,-0.0686 -0.14244,-0.10938 -0.12436,-0.14128 -0.11313,0.40698 -0.11313,-5.52033 0,-5.99969 -0.0144,-5.39012 0.13095,-5.53549 0.14125,-0.14124 -0.0236,-0.13095 2.09682,-0.13095 2.06754,0 1.94326,-0.006 2.06976,0.10215 0.0346,0.0296 0.0825,0.0939 0.1066,0.14276 l 0.0436,0.0889 v 5.34043 5.34042 l -0.0417,0.079 c -0.0477,0.0905 -0.12985,0.16839 -0.2212,0.20988 -0.0602,0.0274 -0.14897,0.0287 -1.9571,0.0288 l -1.89399,1.4e-4 -0.0782,-0.0364 z m 3.19087,-5.65309 v -4.57206 l -1.18374,0.004 -1.18374,0.004 -0.004,4.56808 -0.004,4.56808 h 1.18765 1.18765 z m -14.67853,5.59886 c -0.0783,-0.0357 -0.15629,-0.12344 -0.17746,-0.1997 -0.0252,-0.0907 -0.0226,-5.03318 0.002,-5.11782 0.0246,-0.0821 0.1299,-0.18836 0.20833,-0.21013 0.0411,-0.0114 0.67631,-0.0165 2.02363,-0.0164 1.86609,2.7e-4 1.96695,0.002 2.02609,0.0285 0.0668,0.0304 0.15586,0.12135 0.17943,0.18336 0.008,0.023 0.0145,1.04489 0.0145,2.58066 v 2.54256 l -0.0361,0.0684 c -0.0199,0.0376 -0.0659,0.0894 -0.10224,0.115 l -0.0661,0.0466 -2.00521,0.004 c -1.91324,0.004 -2.00806,0.002 -2.06743,-0.0247 z m 5.93412,0.012 c -0.15076,-0.0355 -0.29594,-0.15699 -0.36582,-0.30607 l -0.0415,-0.0885 v -4.09847 -4.09846 l 0.0453,-0.0924 c 0.0796,-0.16226 0.22172,-0.27024 0.40043,-0.30412 0.0473,-0.009 0.75963,-0.0148 1.78805,-0.0147 1.84452,2.7e-4 1.81208,-0.001 1.95472,0.0825 0.0946,0.0555 0.1887,0.16597 0.2316,0.27205 l 0.0355,0.0877 0.004,3.99755 c 0.003,2.72544 -8.3e-4,4.03127 -0.0119,4.10349 -0.0341,0.22243 -0.16818,0.38274 -0.37359,0.44666 -0.0912,0.0284 -0.1655,0.0295 -1.85176,0.028 -0.96623,-8.3e-4 -1.78308,-0.008 -1.81522,-0.0153 z m 3.0935,-4.4464 v -3.4542 h -1.21091 -1.21091 v 3.4542 3.45419 h 1.21091 1.21091 z"
       id="path5457" /></g></svg>
