<svg width="60" height="44" viewBox="0 0 60 44" fill="none" xmlns="http://www.w3.org/2000/svg">
<path d="M2.14286 43.4286H15C15.5683 43.4286 16.1134 43.2028 16.5152 42.8009C16.9171 42.3991 17.1429 41.854 17.1429 41.2857V24.1429C17.1429 23.5745 16.9171 23.0295 16.5152 22.6276C16.1134 22.2258 15.5683 22 15 22H2.14286C1.57454 22 1.02949 22.2258 0.627628 22.6276C0.225765 23.0295 0 23.5745 0 24.1429V41.2857C0 41.854 0.225765 42.3991 0.627628 42.8009C1.02949 43.2028 1.57454 43.4286 2.14286 43.4286ZM4.28571 26.2857H12.8571V39.1429H4.28571V26.2857ZM23.5714 9.14286C23.0031 9.14286 22.4581 9.36862 22.0562 9.77048C21.6543 10.1723 21.4286 10.7174 21.4286 11.2857V41.2857C21.4286 41.854 21.6543 42.3991 22.0562 42.8009C22.4581 43.2028 23.0031 43.4286 23.5714 43.4286H36.4286C36.9969 43.4286 37.5419 43.2028 37.9438 42.8009C38.3457 42.3991 38.5714 41.854 38.5714 41.2857V11.2857C38.5714 10.7174 38.3457 10.1723 37.9438 9.77048C37.5419 9.36862 36.9969 9.14286 36.4286 9.14286H23.5714ZM34.2857 39.1429H25.7143V13.4286H34.2857V39.1429ZM57.8571 0.571426H45C44.4317 0.571426 43.8866 0.797192 43.4848 1.19906C43.0829 1.60092 42.8571 2.14596 42.8571 2.71428V41.2857C42.8571 41.854 43.0829 42.3991 43.4848 42.8009C43.8866 43.2028 44.4317 43.4286 45 43.4286H57.8571C58.4255 43.4286 58.9705 43.2028 59.3724 42.8009C59.7742 42.3991 60 41.854 60 41.2857V2.71428C60 2.14596 59.7742 1.60092 59.3724 1.19906C58.9705 0.797192 58.4255 0.571426 57.8571 0.571426ZM55.7143 39.1429H47.1429V4.85714H55.7143V39.1429Z" fill="#9C121E"/>
<path d="M4.28571 26.2857H12.8571V39.1429H4.28571V26.2857Z" fill="#9C121E"/>
<path d="M34.2857 39.1429H25.7143V13.4286H34.2857V39.1429Z" fill="#9C121E"/>
<path d="M55.7143 39.1429H47.1429V4.85714H55.7143V39.1429Z" fill="#9C121E"/>
</svg>
